#tb 0: 1/25
0,          0,          0,        1,    76032, 0x4313935b
0,          3,          3,        1,    76032, 0x4c8071b5
0,          6,          6,        1,    76032, 0x5e627edc
0,          7,          7,        1,    76032, 0xb51a996d
0,          8,          8,        1,    76032, 0x77d1800b
0,          9,          9,        1,    76032, 0x4fb9bf3f
0,         10,         10,        1,    76032, 0x838f8c05
0,         11,         11,        1,    76032, 0xa87aabb6
